<svg width="1024" height="1024" viewBox="0 0 1024 1024" fill="none" xmlns="http://www.w3.org/2000/svg">
  <rect width="1024" height="1024" rx="256" fill="#FBF7EE"/>
  <rect x="64" y="64" width="896" height="896" rx="224" fill="url(#bg)"/>
  <rect x="64" y="64" width="896" height="896" rx="224" stroke="#FFFFFF" stroke-opacity="0.72" stroke-width="12"/>
  <g filter="url(#shadow)">
    <circle cx="394" cy="512" r="132" fill="#8F6F4E"/>
    <circle cx="394" cy="512" r="132" fill="url(#leftGlow)" fill-opacity="0.32"/>
    <circle cx="612" cy="582" r="132" fill="#8F6F4E" fill-opacity="0.34"/>
    <circle cx="612" cy="582" r="132" fill="url(#rightGlow)" fill-opacity="0.35"/>
  </g>
  <path d="M338 383C401 328 498 310 591 338C654 357 704 396 734 446" stroke="#FFFAF1" stroke-opacity="0.56" stroke-width="28" stroke-linecap="round"/>
  <path d="M286 638C348 703 456 733 564 704C644 682 709 632 739 568" stroke="#382E25" stroke-opacity="0.16" stroke-width="24" stroke-linecap="round"/>
  <defs>
    <linearGradient id="bg" x1="148" y1="126" x2="896" y2="906" gradientUnits="userSpaceOnUse">
      <stop stop-color="#D3E3CF"/>
      <stop offset="0.52" stop-color="#DED5EE"/>
      <stop offset="1" stop-color="#F4D3B3"/>
    </linearGradient>
    <radialGradient id="leftGlow" cx="0" cy="0" r="1" gradientUnits="userSpaceOnUse" gradientTransform="translate(342 458) rotate(42) scale(196)">
      <stop stop-color="#FFF8EC"/>
      <stop offset="1" stop-color="#FFF8EC" stop-opacity="0"/>
    </radialGradient>
    <radialGradient id="rightGlow" cx="0" cy="0" r="1" gradientUnits="userSpaceOnUse" gradientTransform="translate(560 530) rotate(42) scale(196)">
      <stop stop-color="#FFF8EC"/>
      <stop offset="1" stop-color="#FFF8EC" stop-opacity="0"/>
    </radialGradient>
    <filter id="shadow" x="214" y="316" width="578" height="568" filterUnits="userSpaceOnUse" color-interpolation-filters="sRGB">
      <feDropShadow dx="0" dy="34" stdDeviation="34" flood-color="#59422D" flood-opacity="0.24"/>
    </filter>
  </defs>
</svg>
